<svg width="253" height="71" viewBox="0 0 253 71" fill="none" xmlns="http://www.w3.org/2000/svg">
<path d="M33.12 70.656C26.848 70.656 21.184 69.376 16.128 66.816C11.136 64.192 7.2 60.32 4.32 55.2C1.44 50.08 0 43.776 0 36.288C0 28.8 1.44 22.336 4.32 16.896C7.264 11.456 11.264 7.296 16.32 4.416C21.44 1.472 27.264 0 33.792 0C41.344 0 47.136 1.056 51.168 3.168C55.2 5.28 57.216 8.416 57.216 12.576C57.216 15.776 56.352 18.432 54.624 20.544C52.896 22.592 50.528 23.616 47.52 23.616C44.96 23.616 42.464 23.296 40.032 22.656C37.664 21.952 34.88 21.6 31.68 21.6C27.584 21.6 24.352 22.784 21.984 25.152C19.616 27.52 18.432 30.624 18.432 34.464C18.432 38.24 19.616 41.408 21.984 43.968C24.352 46.464 27.584 47.712 31.68 47.712C33.856 47.712 35.84 47.552 37.632 47.232C39.488 46.848 41.28 46.464 43.008 46.08C44.8 45.696 46.72 45.504 48.768 45.504C52.16 45.504 54.656 46.624 56.256 48.864C57.856 51.04 58.656 53.76 58.656 57.024C58.656 60.288 57.472 62.944 55.104 64.992C52.736 66.976 49.6 68.416 45.696 69.312C41.856 70.208 37.664 70.656 33.12 70.656Z" fill="white"/>
<path d="M90.8228 70.752C83.9748 70.752 78.1828 69.248 73.4468 66.24C68.7108 63.232 65.1268 59.072 62.6948 53.76C60.2628 48.448 59.0467 42.336 59.0467 35.424C59.0467 28.576 60.2628 22.496 62.6948 17.184C65.1268 11.808 68.7108 7.616 73.4468 4.608C78.1828 1.536 83.9748 0 90.8228 0C97.6708 0 103.431 1.536 108.103 4.608C112.839 7.616 116.423 11.808 118.855 17.184C121.287 22.496 122.503 28.576 122.503 35.424C122.503 42.336 121.287 48.448 118.855 53.76C116.423 59.072 112.839 63.232 108.103 66.24C103.431 69.248 97.6708 70.752 90.8228 70.752ZM71.1428 33.888C71.1428 35.872 71.6227 37.76 72.5827 39.552C73.5427 41.28 75.4307 42.688 78.2467 43.776C81.0628 44.8 85.2548 45.312 90.8228 45.312C96.3908 45.312 100.551 44.8 103.303 43.776C106.119 42.688 108.007 41.28 108.967 39.552C109.927 37.76 110.407 35.872 110.407 33.888C110.407 31.84 109.927 30.016 108.967 28.416C108.007 26.752 106.119 25.44 103.303 24.48C100.551 23.456 96.3908 22.944 90.8228 22.944C85.2548 22.944 81.0628 23.456 78.2467 24.48C75.4307 25.44 73.5427 26.752 72.5827 28.416C71.6227 30.016 71.1428 31.84 71.1428 33.888Z" fill="white"/>
<path d="M151.246 0.575998C158.862 0.575998 165.07 2.016 169.87 4.896C174.734 7.712 178.318 11.744 180.622 16.992C182.99 22.176 184.174 28.352 184.174 35.52C184.174 47.552 181.582 56.384 176.398 62.016C171.214 67.648 163.278 70.464 152.59 70.464H148.366C145.23 70.464 142.318 70.144 139.63 69.504C136.942 68.864 134.574 67.712 132.526 66.048C130.478 64.32 128.878 61.92 127.726 58.848C126.574 55.776 125.998 51.808 125.998 46.944C125.998 42.4 126.606 38.464 127.822 35.136C129.102 31.808 130.606 29.152 132.334 27.168C134.062 25.184 135.63 23.968 137.038 23.52L136.558 21.696H134.926C131.982 21.696 129.646 20.768 127.918 18.912C126.254 16.992 125.39 14.432 125.326 11.232C125.262 8.032 126.094 5.472 127.822 3.552C129.614 1.568 131.982 0.575998 134.926 0.575998H151.246ZM144.334 45.696C144.334 47.04 144.622 47.968 145.198 48.48C145.838 48.992 146.766 49.248 147.982 49.248H153.166C156.43 49.248 158.958 48.544 160.75 47.136C162.542 45.728 163.79 43.936 164.494 41.76C165.262 39.52 165.646 37.152 165.646 34.656C165.646 32.16 165.262 29.76 164.494 27.456C163.79 25.152 162.542 23.264 160.75 21.792C158.958 20.32 156.43 19.584 153.166 19.584H147.982C146.766 19.584 145.838 19.872 145.198 20.448C144.622 20.96 144.334 21.92 144.334 23.328V45.696Z" fill="white"/>
<path d="M197.434 70.464C193.146 69.824 190.363 67.872 189.083 64.608C187.803 61.28 188.058 57.088 189.85 52.032L202.523 16.032C203.674 12.704 204.986 9.856 206.458 7.488C207.994 5.12 209.882 3.296 212.122 2.016C214.426 0.735998 217.275 0.0959988 220.667 0.0959988C225.786 0.0959988 229.627 1.504 232.187 4.32C234.811 7.136 236.987 11.04 238.715 16.032L251.29 52.032C253.082 57.088 253.402 61.28 252.251 64.608C251.163 67.872 248.443 69.824 244.09 70.464C240.57 70.912 237.499 70.496 234.874 69.216C232.314 67.936 230.779 65.856 230.266 62.976C229.882 61.056 229.818 59.456 230.074 58.176C230.395 56.896 230.683 55.872 230.939 55.104C231.131 54.464 231.131 53.856 230.939 53.28C230.811 52.64 230.331 52.32 229.499 52.32H211.643C210.811 52.32 210.299 52.64 210.107 53.28C209.979 53.856 210.043 54.464 210.299 55.104C210.555 55.872 210.811 56.896 211.066 58.176C211.322 59.456 211.29 61.056 210.971 62.976C210.459 65.856 208.954 67.936 206.458 69.216C203.962 70.496 200.954 70.912 197.434 70.464ZM227.674 38.88L222.682 23.232C222.554 22.592 222.331 22.112 222.01 21.792C221.755 21.408 221.307 21.216 220.667 21.216C220.027 21.216 219.547 21.408 219.227 21.792C218.971 22.112 218.747 22.592 218.555 23.232L213.658 38.88H227.674Z" fill="white"/>
</svg>
